HIERARCHY
ROOT Hips
{
	OFFSET 0.000000 0.000000 0.000000
	CHANNELS 6 Xposition Yposition Zposition Zrotation Yrotation Xrotation 
	JOINT LHipJoint
	{
		OFFSET 0.000000 0.000000 0.000000
		CHANNELS 3 Zrotation Yrotation Xrotation
		JOINT LeftUpLeg
		{
			OFFSET 1.363060 -1.794630 0.839290
			CHANNELS 3 Zrotation Yrotation Xrotation
			JOINT LeftLeg
			{
				OFFSET 2.448110 -6.726130 0.000000
				CHANNELS 3 Zrotation Yrotation Xrotation
				JOINT LeftFoot
				{
					OFFSET 2.562200 -7.039590 0.000000
					CHANNELS 3 Zrotation Yrotation Xrotation
					JOINT LeftToeBase
					{
						OFFSET 0.157640 -0.433110 2.322550
						CHANNELS 3 Zrotation Yrotation Xrotation
						End Site
						{
							OFFSET 0.000000 0.000000 0.000000
						}
					}
				}
			}
		}
	}
	JOINT RHipJoint
	{
		OFFSET 0.000000 0.000000 0.000000
		CHANNELS 3 Zrotation Yrotation Xrotation
		JOINT RightUpLeg
		{
			OFFSET -1.305520 -1.794630 0.839290
			CHANNELS 3 Zrotation Yrotation Xrotation
			JOINT RightLeg
			{
				OFFSET -2.542530 -6.985550 0.000000
				CHANNELS 3 Zrotation Yrotation Xrotation
				JOINT RightFoot
				{
					OFFSET -2.568260 -7.056230 0.000000
					CHANNELS 3 Zrotation Yrotation Xrotation
					JOINT RightToeBase
					{
						OFFSET -0.164730 -0.452590 2.363150
						CHANNELS 3 Zrotation Yrotation Xrotation
						End Site
						{
							OFFSET 0.000000 0.000000 0.000000
						}
					}
				}
			}
		}
	}
	JOINT LowerBack
	{
		OFFSET 0.000000 0.000000 0.000000
		CHANNELS 3 Zrotation Yrotation Xrotation
		JOINT Spine
		{
			OFFSET 0.028270 2.035590 -0.193380
			CHANNELS 3 Zrotation Yrotation Xrotation
			JOINT Spine1
			{
				OFFSET 0.056720 2.048850 -0.042750
				CHANNELS 3 Zrotation Yrotation Xrotation
				JOINT Neck
				{
					OFFSET 0.000000 0.000000 0.000000
					CHANNELS 3 Zrotation Yrotation Xrotation
					JOINT Neck1
					{
						OFFSET -0.054170 1.746240 0.172020
						CHANNELS 3 Zrotation Yrotation Xrotation
						JOINT Head
						{
							OFFSET 0.104070 1.761360 -0.123970
							CHANNELS 3 Zrotation Yrotation Xrotation
							End Site
							{
								OFFSET 0.000000 0.000000 0.000000
							}
						}
					}
				}
				JOINT LeftShoulder
				{
					OFFSET 0.000000 0.000000 0.000000
					CHANNELS 3 Zrotation Yrotation Xrotation
					JOINT LeftArm
					{
						OFFSET 3.362410 1.200890 -0.311210
						CHANNELS 3 Zrotation Yrotation Xrotation
						JOINT LeftForeArm
						{
							OFFSET 4.983000 -0.000000 -0.000000
							CHANNELS 3 Zrotation Yrotation Xrotation
							JOINT LeftHand
							{
								OFFSET 3.483560 -0.000000 -0.000000
								CHANNELS 3 Zrotation Yrotation Xrotation
								JOINT LeftFingerBase
								{
									OFFSET 0.000000 0.000000 0.000000
									CHANNELS 3 Zrotation Yrotation Xrotation
									JOINT LeftHandIndex1
									{
										OFFSET 0.715260 -0.000000 -0.000000
										CHANNELS 3 Zrotation Yrotation Xrotation
										End Site
										{
											OFFSET 0.000000 0.000000 0.000000
										}
									}
								}
								JOINT LThumb
								{
									OFFSET 0.000000 0.000000 0.000000
									CHANNELS 3 Zrotation Yrotation Xrotation
									End Site
									{
										OFFSET 0.000000 0.000000 0.000000
									}
								}
							}
						}
					}
				}
				JOINT RightShoulder
				{
					OFFSET 0.000000 0.000000 0.000000
					CHANNELS 3 Zrotation Yrotation Xrotation
					JOINT RightArm
					{
						OFFSET -3.136600 1.374050 -0.404650
						CHANNELS 3 Zrotation Yrotation Xrotation
						JOINT RightForeArm
						{
							OFFSET -5.241900 -0.000000 -0.000000
							CHANNELS 3 Zrotation Yrotation Xrotation
							JOINT RightHand
							{
								OFFSET -3.444170 -0.000000 -0.000000
								CHANNELS 3 Zrotation Yrotation Xrotation
								JOINT RightFingerBase
								{
									OFFSET 0.000000 0.000000 0.000000
									CHANNELS 3 Zrotation Yrotation Xrotation
									JOINT RightHandIndex1
									{
										OFFSET -0.622530 -0.000000 -0.000000
										CHANNELS 3 Zrotation Yrotation Xrotation
										End Site
										{
											OFFSET 0.000000 0.000000 0.000000
										}
									}
								}
								JOINT RThumb
								{
									OFFSET 0.000000 0.000000 0.000000
									CHANNELS 3 Zrotation Yrotation Xrotation
									End Site
									{
										OFFSET 0.000000 0.000000 0.000000
									}
								}
							}
						}
					}
				}
			}
		}
	}
}
MOTION
Frames: 11
Frame Time: 0.008333
6.679890 18.404007 -17.263641 9.573502 -79.487844 -4.568928 10.619162 4.238550 -1.602057 -26.180231 -1.689980 -11.559635 7.061032 9.442166 31.957928 -0.835785 -6.127638 -6.361694 1.386900 -7.451400 -21.059600 -8.970681 -4.167219 -0.498943 23.656799 3.666397 -16.944899 -8.752342 -12.514253 43.096152 -1.150291 -5.421796 -14.131222 -1.130000 6.751800 -18.982100 -3.494587 1.149912 1.644153 5.676352 1.207385 3.445036 1.445069 1.389855 -12.697594 -3.018191 6.168449 -28.724291 2.190543 8.953913 30.195538 3.716200 4.011800 12.100300 3.042697 7.093174 -2.875428 -40.005568 -6.591223 -29.174537 29.297775 -44.132990 -5.000010 0.415368 6.265572 -4.610559 4.872184 55.226044 2.935900 -7.125000 0.000000 0.000000 -59.533800 71.180400 -41.314300 -6.978110 -6.726957 -2.797690 45.140923 -1.969863 -44.239612 -25.604087 41.050340 -4.846197 -0.479618 -1.418584 -17.844185 -20.636691 1.686840 -1.079100 7.125000 0.000000 0.000000 5.224400 -26.778000 2.319400 
6.690581 18.435159 -17.256360 11.350065 -79.578642 -6.998013 10.591917 4.063630 -1.669789 -25.950179 -1.451066 -10.320669 6.975012 9.286843 31.532823 -0.677737 -5.611327 -6.732633 1.492900 -7.718600 -21.862500 -8.857482 -4.007635 -0.552057 22.558483 2.964577 -16.292019 -8.674087 -12.517209 43.074178 -1.251435 -6.135404 -14.055047 -0.933400 6.154400 -17.233000 -3.451422 1.123359 1.695849 5.136670 1.086201 4.622680 1.556137 1.403317 -13.208740 -3.058605 6.143080 -29.772203 2.813050 8.837583 31.414557 3.946800 4.037400 12.562300 3.283697 7.309364 -3.092851 -37.842339 -7.265289 -30.729831 29.585903 -44.826676 -5.185447 0.443601 6.334725 -4.972855 5.650770 52.813746 3.347600 -7.125000 0.000000 0.000000 -52.929900 70.120700 -34.850400 -7.100158 -6.886692 -3.034339 43.022689 -1.048628 -44.546390 -25.968118 41.777429 -4.980232 -0.504534 -1.500333 -18.347144 -21.243114 1.567254 -1.095300 7.125000 0.000000 0.000000 4.807700 -26.815100 2.128900 
6.700443 18.465205 -17.249540 10.132626 -79.627070 -6.312276 10.541570 3.934710 -1.701900 -25.025950 -1.225544 -9.652582 6.961670 9.268723 31.582358 -0.543019 -5.144191 -6.923838 1.298100 -7.218200 -20.363500 -8.808386 -3.856123 -0.653901 22.140311 2.445152 -15.492048 -8.567729 -12.462585 42.834453 -1.357777 -7.176920 -13.887733 -0.744700 5.512400 -15.376100 -3.219766 0.987220 1.844805 5.514461 0.861256 5.334136 1.332001 1.286185 -13.618028 -2.714011 6.307959 -29.738440 2.260327 9.085578 31.090798 3.778300 4.094000 12.498400 3.398359 7.494595 -3.324527 -35.730900 -7.620122 -32.336809 29.894702 -45.439141 -5.295787 0.333816 6.538914 -5.279174 5.314310 52.650505 3.127900 -7.125000 0.000000 0.000000 -52.301000 69.805400 -34.033700 -7.331412 -7.091329 -3.274821 40.826745 0.185122 -44.576374 -26.366979 42.535466 -5.129305 -0.528258 -1.568799 -18.858279 -21.855578 1.605037 -1.166500 7.125000 0.000000 0.000000 4.379100 -26.697300 1.950100 
6.709844 18.487509 -17.244931 8.012372 -79.739536 -4.493533 10.501800 3.809885 -1.832502 -23.879052 -0.966965 -9.162159 6.940226 9.249287 31.558256 -0.439108 -4.769868 -6.948961 0.809600 -5.742000 -16.037500 -8.777083 -3.722237 -0.767587 21.947556 2.277755 -14.886536 -8.483997 -12.437956 42.708419 -1.462396 -8.462140 -13.952288 -0.569600 4.833600 -13.434700 -3.137010 0.957164 2.249806 6.229799 0.821231 5.153875 1.061930 1.235627 -14.025051 -2.320169 6.396112 -29.045905 1.401948 9.258118 30.681852 3.479000 4.081900 12.300600 3.450998 7.669973 -3.490104 -33.532569 -8.129892 -33.356027 30.179806 -45.953824 -5.343050 0.207773 6.807372 -5.756047 4.994302 53.232851 2.941600 -7.125000 0.000000 0.000000 -53.222300 69.888900 -34.831900 -7.601315 -7.254493 -3.454762 38.630692 1.011605 -44.465199 -26.927832 43.450997 -5.344568 -0.518962 -1.664746 -19.567695 -22.162333 1.636527 -1.231900 7.125000 0.000000 0.000000 4.170800 -26.556600 1.870700 
6.722932 18.497278 -17.242996 7.575485 -79.732884 -4.170423 10.459571 3.672697 -1.958512 -23.134508 -1.208192 -8.769640 6.944181 9.281236 31.687406 -0.327951 -4.350717 -6.866300 0.434600 -4.230500 -11.726200 -8.736050 -3.595423 -0.935785 21.376695 2.030092 -14.547136 -8.392419 -12.460546 42.704199 -1.564152 -9.670767 -13.689004 -0.419500 4.157000 -11.518800 -2.985096 1.109531 2.763071 5.925551 1.039633 4.543910 0.991465 1.336217 -14.493877 -1.703619 6.419581 -29.072481 1.363632 9.081558 31.313360 3.356600 4.054400 12.482200 3.551263 7.889067 -3.564247 -31.170992 -9.624540 -34.108679 30.422057 -46.446752 -5.364571 0.180920 7.069687 -6.106474 5.271259 53.763374 3.118800 -7.125000 0.000000 0.000000 -53.675500 70.125600 -35.435700 -7.695503 -7.393813 -3.606713 36.619885 0.970083 -44.236166 -27.714485 44.587205 -5.676499 -0.521429 -1.784754 -21.202134 -22.783734 1.827332 -1.383000 7.125000 0.000000 0.000000 3.755000 -26.229500 1.712200 
6.734729 18.486495 -17.238296 7.570416 -79.645583 -4.619921 10.391160 3.518161 -1.998872 -22.473258 -1.240853 -8.183583 6.962629 9.289309 31.829289 -0.297919 -4.211948 -6.486518 0.416800 -4.143800 -11.481500 -8.632513 -3.421334 -1.048309 20.544793 1.610446 -13.886292 -8.298537 -12.486788 42.734838 -1.640405 -10.418721 -13.149219 -0.217500 3.002600 -8.285900 -2.920090 1.243159 2.899209 5.843050 1.172816 5.042912 0.861586 1.429646 -14.904626 -2.119827 6.084105 -29.169699 2.062603 8.618833 31.872922 3.518400 3.924200 12.595400 3.583813 8.181923 -3.657702 -28.976938 -11.517748 -35.374889 30.650623 -46.904672 -5.411915 0.240119 7.278941 -6.383463 6.322106 54.169713 3.809700 -7.125000 0.000000 0.000000 -53.445300 70.574400 -35.730400 -7.753365 -7.586574 -3.870931 34.480161 1.269610 -44.490784 -28.469183 45.712563 -6.006957 -0.565783 -1.914450 -22.408211 -23.901721 1.798066 -1.487900 7.125000 0.000000 0.000000 2.994300 -26.115700 1.372300 
6.743577 18.456173 -17.231107 7.875349 -79.578430 -5.593554 10.319281 3.398455 -1.963651 -21.844546 -0.958594 -7.512823 6.986724 9.268080 31.906501 -0.401700 -4.556493 -5.932875 0.638600 -5.112600 -14.230000 -8.460144 -3.176159 -1.121550 19.553865 1.140677 -12.983955 -8.200021 -12.497357 42.768200 -1.708925 -10.931736 -12.361031 -0.076600 1.785000 -4.911700 -3.845056 0.782472 2.908535 7.750813 0.470819 6.215667 1.026643 1.172591 -15.287646 -3.309143 6.220240 -29.565443 2.672657 9.140915 32.316884 4.013100 4.133400 12.695600 3.523845 8.531520 -3.937393 -27.592906 -10.981455 -37.198021 31.198347 -47.761129 -5.691933 0.147903 7.424852 -6.984678 6.934363 54.263168 4.265000 -7.125000 0.000000 0.000000 -52.798700 70.760700 -35.418200 -7.992231 -7.838666 -4.154199 31.628394 4.325624 -45.617923 -28.798539 46.570190 -6.200831 -0.583313 -2.027194 -20.326955 -24.350324 0.443105 -1.010300 7.125000 0.000000 0.000000 2.659300 -27.404100 1.138100 
6.752056 18.420320 -17.221890 7.600033 -79.567278 -5.816982 10.271647 3.306334 -1.918093 -21.150794 -1.096995 -6.874812 7.023028 9.276244 32.049465 -0.482746 -4.823075 -5.477377 0.718900 -5.418300 -15.105500 -8.297832 -2.921322 -1.230395 18.741164 0.703135 -12.216510 -8.103300 -12.485449 42.748474 -1.769528 -11.281365 -11.377310 -0.058700 1.563800 -4.301500 -5.008808 -0.056233 3.004854 10.521696 -0.744873 7.045068 1.283546 0.634943 -15.535798 -4.442954 6.783919 -30.207318 2.965316 10.366421 32.691657 4.568900 4.599900 12.837800 3.399934 8.880120 -4.346152 -26.482584 -8.782913 -39.138614 31.939326 -48.875606 -6.128560 -0.124469 7.565005 -7.570259 6.331258 54.537691 3.978400 -7.125000 0.000000 0.000000 -53.315400 70.667200 -35.725800 -8.168707 -8.113228 -4.264750 28.544440 8.980837 -45.446983 -29.386963 47.502091 -6.527655 -0.439242 -2.078884 -21.920532 -23.145159 1.318580 -1.332300 7.125000 0.000000 0.000000 3.516100 -26.416700 1.587400 
6.760720 18.381058 -17.209632 5.886826 -79.597246 -4.566050 10.187217 3.137187 -1.975726 -20.096107 -1.322453 -6.173677 7.054643 9.287240 32.185996 -0.547943 -5.022363 -4.960880 0.572300 -4.844700 -13.466100 -8.202701 -2.707773 -1.376741 18.317276 0.357529 -11.374676 -8.027924 -12.458877 42.608304 -1.788754 -11.278265 -10.763735 -0.092800 1.964800 -5.408300 -5.098888 -0.346900 3.272846 11.815892 -1.189676 7.345374 1.040194 0.366739 -15.848507 -4.989963 6.836150 -29.791019 2.882039 10.687866 32.255965 4.627800 4.694400 12.615400 3.262753 9.245898 -4.611585 -24.548491 -8.871766 -40.553860 32.453501 -49.659782 -6.412180 -0.262582 7.751644 -7.815460 6.074664 54.992398 3.871300 -7.125000 0.000000 0.000000 -54.033500 70.745300 -36.374300 -8.175848 -8.469280 -4.390702 25.965039 11.868892 -46.000921 -29.944173 48.306116 -6.811948 -0.332781 -2.143632 -22.400576 -22.520733 1.798920 -1.518900 7.125000 0.000000 0.000000 3.935100 -25.816300 1.832700 
6.768738 18.330459 -17.200139 3.310242 -79.549443 -2.402311 10.062982 2.902421 -2.147642 -18.743731 -1.320298 -5.551605 7.072405 9.277403 32.222873 -0.670310 -5.397488 -4.232499 0.415900 -4.139500 -11.469500 -8.161854 -2.536281 -1.554174 18.152278 0.088488 -10.483721 -7.952148 -12.432551 42.410291 -1.796659 -11.330381 -10.273958 -0.078600 1.808400 -4.976500 -4.583243 -0.165753 3.790412 12.012937 -0.959266 7.038856 0.658154 0.396592 -16.239589 -4.197285 6.779395 -29.410418 1.786609 10.580496 32.367944 4.173100 4.539500 12.664800 3.065168 9.628587 -4.690784 -22.101725 -11.171715 -41.804635 32.700643 -50.078676 -6.518872 -0.240196 7.939136 -7.810524 6.366434 54.914913 4.030900 -7.125000 0.000000 0.000000 -53.226700 70.685500 -35.675400 -8.114104 -8.876390 -4.575748 23.718167 12.915043 -46.464364 -30.665938 49.257627 -7.174042 -0.274374 -2.267258 -22.778617 -22.537008 1.738415 -1.552900 7.125000 0.000000 0.000000 3.923200 -25.726000 1.835400 
6.769660 18.265666 -17.192397 3.078593 -79.574272 -2.388486 9.970086 2.709170 -2.286645 -17.937748 -1.328642 -4.967678 7.073674 9.223352 32.094289 -0.775694 -5.708947 -3.539594 0.348600 -3.793700 -10.496900 -8.055759 -2.337804 -1.694827 17.389870 -0.012561 -9.801597 -7.874107 -12.435536 42.330958 -1.834418 -11.316031 -9.771335 -0.031100 1.138700 -3.130600 -4.133159 0.019029 3.916401 11.338239 -0.704580 6.946069 0.480377 0.489478 -16.477622 -3.445722 6.704810 -29.638668 1.492293 10.304352 33.187235 3.963400 4.425200 12.965800 2.845823 10.062101 -4.721866 -19.322190 -14.016075 -43.351275 32.844462 -50.291501 -6.555324 -0.225710 8.146123 -7.829848 6.535312 54.778451 4.092600 -7.125000 0.000000 0.000000 -52.345600 70.534800 -34.829800 -7.854801 -9.292057 -4.784178 21.624700 13.705463 -46.801546 -31.578441 50.384238 -7.667950 -0.264179 -2.417226 -23.552164 -23.103159 1.305110 -1.479300 7.125000 0.000000 0.000000 3.552700 -26.014800 1.637500 
